<svg xmlns="http://www.w3.org/2000/svg" width="216" height="216" viewBox="0 0 216 216">
  <g id="_3.0_verse" data-name="3.0 verse" transform="translate(13011 -17790)">
    <rect id="Rectangle_4338" data-name="Rectangle 4338" width="216" height="216" transform="translate(-13011 17790)" fill="none"/>
    <g id="Group_6291" data-name="Group 6291" transform="translate(-13011 17790)">
      <path id="Path_9232" data-name="Path 9232" d="M44.16,190.27v-5.35a2.655,2.655,0,0,0-2.68-2.68,2.655,2.655,0,0,1-2.68-2.68v-5.35a2.655,2.655,0,0,0-2.68-2.68,2.655,2.655,0,0,1-2.68-2.68v-10.7a2.68,2.68,0,0,1,5.36,0v10.7a2.655,2.655,0,0,0,2.68,2.68,2.655,2.655,0,0,1,2.68,2.68v5.35a2.68,2.68,0,0,0,5.36,0v-5.35a2.589,2.589,0,0,1,2.68-2.68,2.625,2.625,0,0,0,2.68-2.68v-10.7a2.68,2.68,0,0,1,5.36,0v10.7a2.655,2.655,0,0,1-2.68,2.68,2.655,2.655,0,0,0-2.68,2.68v5.35a2.589,2.589,0,0,1-2.68,2.68,2.655,2.655,0,0,0-2.68,2.68v5.35a2.68,2.68,0,0,1-5.36,0Z" fill="#004fff"/>
      <path id="Path_9233" data-name="Path 9233" d="M74.72,192.94a2.655,2.655,0,0,1-2.68-2.68,2.655,2.655,0,0,0-2.68-2.68,2.655,2.655,0,0,1-2.68-2.68V163.5a2.655,2.655,0,0,1,2.68-2.68,2.655,2.655,0,0,0,2.68-2.68,2.655,2.655,0,0,1,2.68-2.68h10.7a2.655,2.655,0,0,1,2.68,2.68,2.655,2.655,0,0,0,2.68,2.68,2.655,2.655,0,0,1,2.68,2.68v10.7a2.655,2.655,0,0,1-2.68,2.68H74.72a2.619,2.619,0,0,0-2.68,2.68v5.35a2.687,2.687,0,0,0,2.68,2.68h10.7a2.655,2.655,0,0,0,2.68-2.68,2.68,2.68,0,1,1,2.68,2.68,2.687,2.687,0,0,0-2.68,2.68,2.693,2.693,0,0,1-2.68,2.68H74.72Zm13.37-24.07v-5.35a2.655,2.655,0,0,0-2.68-2.68H74.71a2.655,2.655,0,0,0-2.68,2.68v5.35a2.653,2.653,0,0,0,2.68,2.68h10.7A2.661,2.661,0,0,0,88.09,168.87Z" fill="#004fff"/>
      <path id="Path_9234" data-name="Path 9234" d="M99.81,190.27V158.16a2.68,2.68,0,0,1,5.36,0,2.68,2.68,0,0,0,5.36,0,2.655,2.655,0,0,1,2.68-2.68h2.68a2.68,2.68,0,1,1,0,5.36h-2.68a2.655,2.655,0,0,0-2.68,2.68,2.655,2.655,0,0,1-2.68,2.68,2.655,2.655,0,0,0-2.68,2.68v21.4a2.68,2.68,0,1,1-5.36-.01Z" fill="#004fff"/>
      <path id="Path_9235" data-name="Path 9235" d="M130.58,192.94a2.655,2.655,0,0,1-2.68-2.68,2.655,2.655,0,0,0-2.68-2.68,2.68,2.68,0,1,1,2.68-2.68,2.655,2.655,0,0,0,2.68,2.68h10.7a2.655,2.655,0,0,0,2.68-2.68v-5.35a2.655,2.655,0,0,0-2.68-2.68h-5.35a2.655,2.655,0,0,1-2.68-2.68,2.655,2.655,0,0,0-2.68-2.68,2.655,2.655,0,0,1-2.68-2.68,2.655,2.655,0,0,0-2.68-2.68,2.68,2.68,0,1,1,0-5.36,2.655,2.655,0,0,0,2.68-2.68,2.655,2.655,0,0,1,2.68-2.68h10.7a2.655,2.655,0,0,1,2.68,2.68,2.655,2.655,0,0,0,2.68,2.68,2.68,2.68,0,1,1-2.68,2.68,2.655,2.655,0,0,0-2.68-2.68h-10.7a2.68,2.68,0,1,0,0,5.36,2.655,2.655,0,0,1,2.68,2.68,2.655,2.655,0,0,0,2.68,2.68h5.35a2.655,2.655,0,0,1,2.68,2.68,2.655,2.655,0,0,0,2.68,2.68,2.726,2.726,0,0,1,2.68,2.68v5.35a2.655,2.655,0,0,1-2.68,2.68,2.655,2.655,0,0,0-2.68,2.68,2.655,2.655,0,0,1-2.68,2.68Z" fill="#004fff"/>
      <path id="Path_9236" data-name="Path 9236" d="M163.81,192.94a2.655,2.655,0,0,1-2.68-2.68,2.655,2.655,0,0,0-2.68-2.68,2.655,2.655,0,0,1-2.68-2.68V163.5a2.655,2.655,0,0,1,2.68-2.68,2.655,2.655,0,0,0,2.68-2.68,2.655,2.655,0,0,1,2.68-2.68h10.7a2.655,2.655,0,0,1,2.68,2.68,2.655,2.655,0,0,0,2.68,2.68,2.655,2.655,0,0,1,2.68,2.68v10.7a2.655,2.655,0,0,1-2.68,2.68H163.82a2.619,2.619,0,0,0-2.68,2.68v5.35a2.686,2.686,0,0,0,2.68,2.68h10.7a2.655,2.655,0,0,0,2.68-2.68,2.68,2.68,0,1,1,2.68,2.68,2.686,2.686,0,0,0-2.68,2.68,2.693,2.693,0,0,1-2.68,2.68H163.81Zm13.38-24.07v-5.35a2.655,2.655,0,0,0-2.68-2.68h-10.7a2.655,2.655,0,0,0-2.68,2.68v5.35a2.653,2.653,0,0,0,2.68,2.68h10.7A2.667,2.667,0,0,0,177.19,168.87Z" fill="#004fff"/>
    </g>
    <g id="Group_6294" data-name="Group 6294" transform="translate(-13011 17790)">
      <g id="Group_6292" data-name="Group 6292">
        <path id="Path_9237" data-name="Path 9237" d="M138.37,139.47a5.762,5.762,0,0,1-5.82-5.82,5.762,5.762,0,0,0-5.82-5.82,5.762,5.762,0,0,1-5.82-5.82V40.53a5.762,5.762,0,0,1,5.82-5.82,5.762,5.762,0,0,0,5.82-5.82,5.762,5.762,0,0,1,5.82-5.82h23.28a5.762,5.762,0,0,1,5.82,5.82,5.762,5.762,0,0,0,5.82,5.82,5.762,5.762,0,0,1,5.82,5.82v81.48a5.625,5.625,0,0,1-5.82,5.82,5.762,5.762,0,0,0-5.82,5.82,5.762,5.762,0,0,1-5.82,5.82H138.37Zm29.1-27.78V40.53a5.762,5.762,0,0,0-5.82-5.82H138.37a5.838,5.838,0,0,0-5.82,5.82v81.48a5.762,5.762,0,0,0,5.82,5.82h23.28a5.762,5.762,0,0,0,5.82-5.82V75.45" fill="#004fff"/>
      </g>
      <g id="Group_6293" data-name="Group 6293">
        <path id="Path_9238" data-name="Path 9238" d="M55.26,139.46a5.762,5.762,0,0,1-5.82-5.82,5.762,5.762,0,0,0-5.82-5.82A5.82,5.82,0,1,1,49.44,122a5.762,5.762,0,0,0,5.82,5.82H78.54A5.762,5.762,0,0,0,84.36,122V98.72a5.69,5.69,0,0,0-5.82-5.82,5.838,5.838,0,0,1-5.82-5.82,5.762,5.762,0,0,0-5.82-5.82H55.26a5.82,5.82,0,0,1,0-11.64H66.9a5.762,5.762,0,0,0,5.82-5.82,5.762,5.762,0,0,1,5.82-5.82,5.83,5.83,0,0,0,5.82-5.82V40.52a5.762,5.762,0,0,0-5.82-5.82H55.26a5.988,5.988,0,0,0-5.82,5.82,5.82,5.82,0,1,1-5.82-5.82,5.762,5.762,0,0,0,5.82-5.82,5.762,5.762,0,0,1,5.82-5.82H78.54a5.762,5.762,0,0,1,5.82,5.82,5.762,5.762,0,0,0,5.82,5.82A5.756,5.756,0,0,1,96,40.52V52.16a5.762,5.762,0,0,1-5.82,5.82,5.762,5.762,0,0,0-5.82,5.82,5.762,5.762,0,0,1-5.82,5.82,5.82,5.82,0,0,0,0,11.64,5.762,5.762,0,0,1,5.82,5.82,5.762,5.762,0,0,0,5.82,5.82A5.762,5.762,0,0,1,96,98.72V122a5.762,5.762,0,0,1-5.82,5.82,5.762,5.762,0,0,0-5.82,5.82,5.762,5.762,0,0,1-5.82,5.82Z" fill="#004fff"/>
        <path id="Path_9239" data-name="Path 9239" d="M115.79,132.12a7.3,7.3,0,0,1-7.33,7.33,7.21,7.21,0,0,1-7.22-7.33,7.111,7.111,0,0,1,7.22-7.22A7.2,7.2,0,0,1,115.79,132.12Z" fill="#004fff"/>
      </g>
    </g>
  </g>
</svg>
